<svg xmlns="http://www.w3.org/2000/svg" width="1000" height="1000" xml:space="preserve"><rect width="100%" height="100%" fill="rgba(255,255,255,0)"/><path style="stroke:none;stroke-width:0;stroke-dasharray:none;stroke-linecap:butt;stroke-dashoffset:0;stroke-linejoin:miter;stroke-miterlimit:4;is-custom-font:none;font-file-url:none;fill:#fff;fill-rule:nonzero;opacity:1" transform="translate(34.09 34.09) scale(22.7273)" d="M20 0C9 0 0 9 0 20s9 20 20 20 20-9 20-20S31 0 20 0zm0 38c-9.9 0-18-8.1-18-18S10.1 2 20 2s18 8.1 18 18-8.1 18-18 18z"/><path style="stroke:none;stroke-width:0;stroke-dasharray:none;stroke-linecap:butt;stroke-dashoffset:0;stroke-linejoin:miter;stroke-miterlimit:4;is-custom-font:none;font-file-url:none;fill:#fff;fill-rule:nonzero;opacity:1" transform="translate(34.09 34.091) scale(22.7273)" d="M17.8 15v-2.3l-4 4.5c-.2.2-.5.3-.7.3H9.7c-.6 0-1.1.5-1.1 1.1v3c0 .6.5 1.1 1.1 1.1H12v-2.4c0-.6.4-1 1-1 .5 0 1 .4 1 1v3l3.8 4.2V19c0-.5.5-1 1-1s1 .5 1 1v9.1c0 .9-.4 1.6-1.1 1.9-.2.1-.3.1-.5.1-.4 0-.8-.2-1.1-.5l-4.5-5H9.7c-1.7 0-3.1-1.4-3.1-3.1v-3c0-1.7 1.4-3.1 3.1-3.1h2.9l4.5-5c.4-.5 1-.6 1.6-.4.7.3 1.1 1 1.1 1.9v3c0 .6-.5 1-1 1s-1-.3-1-.9z"/><path style="stroke:none;stroke-width:1;stroke-dasharray:none;stroke-linecap:butt;stroke-dashoffset:0;stroke-linejoin:miter;stroke-miterlimit:4;is-custom-font:none;font-file-url:none;fill:#fff;fill-rule:nonzero;opacity:1" transform="translate(325.417 266.44) scale(4.0156)" d="m106.38 114.541-9.779-5.035c.114-.224 11.712-23.197 11.712-51.188 0-27.802-13.417-50.66-13.553-50.888l9.441-5.645c.617 1.03 15.111 25.593 15.111 56.532 0 30.752-12.404 55.199-12.932 56.224z"/><path style="stroke:none;stroke-width:1;stroke-dasharray:none;stroke-linecap:butt;stroke-dashoffset:0;stroke-linejoin:miter;stroke-miterlimit:4;is-custom-font:none;font-file-url:none;fill:#fff;fill-rule:nonzero;opacity:1" transform="translate(325.417 266.44) scale(4.0156)" d="m88.489 101.367-9.779-5.035c.081-.159 8.533-16.937 8.533-37.337 0-20.337-9.756-36.863-9.854-37.027l9.438-5.651c.466.778 11.417 19.333 11.417 42.679-.001 23.158-9.356 41.598-9.755 42.371z"/><path style="stroke:none;stroke-width:1;stroke-dasharray:none;stroke-linecap:butt;stroke-dashoffset:0;stroke-linejoin:miter;stroke-miterlimit:4;is-custom-font:none;font-file-url:none;fill:#fff;fill-rule:nonzero;opacity:1" transform="translate(325.417 266.44) scale(4.0156)" d="m71.573 86.925-9.779-5.035c.046-.091 5.22-10.405 5.22-22.895 0-12.3-5.947-22.498-6.008-22.599l9.445-5.639c.309.516 7.562 12.807 7.562 28.238.001 15.244-6.176 27.419-6.44 27.93z"/></svg>