<svg xmlns="http://www.w3.org/2000/svg" width="1000" height="1000" xml:space="preserve"><rect width="100%" height="100%" fill="rgba(255,255,255,0)"/><path style="stroke:none;stroke-width:0;stroke-dasharray:none;stroke-linecap:butt;stroke-dashoffset:0;stroke-linejoin:miter;stroke-miterlimit:4;is-custom-font:none;font-file-url:none;fill:#fffcfc;fill-rule:nonzero;opacity:1" transform="translate(211.826 243.056) scale(1.0715)" d="M486.1 171.35c-4.8-4.8-12.5-4.8-17.3 0l-56.3 56.3-56.3-56.3c-4.8-4.8-12.5-4.8-17.3 0-4.8 4.8-4.8 12.5 0 17.3l56.3 56.3-56.3 56.3c-4.8 4.8-4.8 12.5 0 17.3 2.4 2.4 5.5 3.6 8.7 3.6s6.3-1.2 8.7-3.6l56.3-56.3 56.3 56.3c2.4 2.4 5.5 3.6 8.7 3.6s6.3-1.2 8.7-3.6c4.8-4.8 4.8-12.5 0-17.3l-56.5-56.3 56.3-56.3c4.7-4.8 4.7-12.5 0-17.3z"/><rect style="stroke:none;stroke-width:1;stroke-dasharray:none;stroke-linecap:butt;stroke-dashoffset:0;stroke-linejoin:miter;stroke-miterlimit:4;is-custom-font:none;font-file-url:none;fill:#fff;fill-opacity:0;fill-rule:nonzero;opacity:1" x="-50" y="-50" rx="0" ry="0" width="100" height="100" fill="none" transform="translate(33.333 75)"/><path style="stroke:none;stroke-width:0;stroke-dasharray:none;stroke-linecap:butt;stroke-dashoffset:0;stroke-linejoin:miter;stroke-miterlimit:4;is-custom-font:none;font-file-url:none;fill:#fff;fill-rule:nonzero;opacity:1" transform="translate(17.423 59.09) scale(22.7273)" d="M20 0C9 0 0 9 0 20s9 20 20 20 20-9 20-20S31 0 20 0zm0 38c-9.9 0-18-8.1-18-18S10.1 2 20 2s18 8.1 18 18-8.1 18-18 18z"/><path style="stroke:none;stroke-width:0;stroke-dasharray:none;stroke-linecap:butt;stroke-dashoffset:0;stroke-linejoin:miter;stroke-miterlimit:4;is-custom-font:none;font-file-url:none;fill:#fff;fill-rule:nonzero;opacity:1" transform="translate(17.423 59.091) scale(22.7273)" d="M17.8 15v-2.3l-4 4.5c-.2.2-.5.3-.7.3H9.7c-.6 0-1.1.5-1.1 1.1v3c0 .6.5 1.1 1.1 1.1H12v-2.4c0-.6.4-1 1-1 .5 0 1 .4 1 1v3l3.8 4.2V19c0-.5.5-1 1-1s1 .5 1 1v9.1c0 .9-.4 1.6-1.1 1.9-.2.1-.3.1-.5.1-.4 0-.8-.2-1.1-.5l-4.5-5H9.7c-1.7 0-3.1-1.4-3.1-3.1v-3c0-1.7 1.4-3.1 3.1-3.1h2.9l4.5-5c.4-.5 1-.6 1.6-.4.7.3 1.1 1 1.1 1.9v3c0 .6-.5 1-1 1s-1-.3-1-.9z"/></svg>